<svg xmlns="http://www.w3.org/2000/svg" width="466.62" height="456.896" viewBox="0 0 466.62 456.896"><defs><style>.a{fill:#ff8500;stroke:#ff8500;stroke-width:4px;}</style></defs><g transform="translate(2.018 -3.393)"><path class="a" d="M338.326,164.963a6.776,6.776,0,1,0-3.079,13.2c11.851,2.766,32.982,17.742,37.333,22.093a6.776,6.776,0,0,0,9.584-9.582c-5.189-5.19-28.321-22.088-43.838-25.709Zm-214.032,0c-15.516,3.62-38.648,20.518-43.838,25.708a6.776,6.776,0,0,0,9.584,9.582c4.35-4.351,25.482-19.327,37.333-22.093a6.776,6.776,0,1,0-3.079-13.2Zm240.378,235.13c-68.438,51.914-157.657,57.026-228.872,23.034a60.4,60.4,0,0,0,25.063-48.968c0-30.771-27.355-60.224-45.043-87.178a18.428,18.428,0,0,0-30.825,0c-11.881,18.108-28.642,37.974-37.946,58.281C-7.306,261.183,4.942,149.308,80.4,78.363a6.777,6.777,0,0,0-9.284-9.874c-83.04,78.072-93.951,202.451-29.628,292.694-10.592,46.024,34.78,86.232,79.684,69.756,77.181,40.971,176.384,37.073,251.685-20.05a6.775,6.775,0,1,0-8.188-10.8Zm-264.265,20.97a46.957,46.957,0,0,1-46.9-46.9c0-25.556,25.847-53.869,42.821-79.743a4.885,4.885,0,0,1,8.164,0c16.981,25.881,42.821,54.189,42.821,79.743a46.954,46.954,0,0,1-46.9,46.9Zm4.246-195.582a6.777,6.777,0,0,0-10.217,8.9,43.21,43.21,0,0,0,65.2,0,6.776,6.776,0,0,0-10.217-8.9,29.656,29.656,0,0,1-44.765,0ZM231.311,5.393A233.062,233.062,0,0,0,96.606,47.735,6.776,6.776,0,0,0,104.4,58.824a219.576,219.576,0,0,1,126.915-39.88c119.054,0,217.739,94.046,217.739,212.866,0,55.285-21.578,107.672-60.759,147.512a6.776,6.776,0,0,0,9.663,9.5c41.689-42.39,64.649-98.153,64.649-157.015,0-125.494-103.85-226.418-231.291-226.418Zm-37.18,284.583c9.5-13.655,23.051-21.487,37.18-21.487s27.682,7.831,37.18,21.487a6.776,6.776,0,0,0,11.125-7.739c-12.07-17.349-29.677-27.3-48.306-27.3s-36.236,9.95-48.306,27.3a6.777,6.777,0,0,0,11.127,7.739Zm141.454-40.742a43.242,43.242,0,0,0,32.6-14.849,6.777,6.777,0,0,0-10.217-8.9,29.659,29.659,0,0,1-44.767,0,6.777,6.777,0,0,0-10.217,8.9,43.246,43.246,0,0,0,32.6,14.849Z" transform="translate(0)"/></g></svg>