<svg xmlns="http://www.w3.org/2000/svg" width="553.442" height="553.442" viewBox="0 0 553.442 553.442"><defs><style>.a,.b{fill:#15c16e;}.a{opacity:0;}</style></defs><g transform="matrix(0.966, -0.259, 0.259, 0.966, 0, 116.956)"><rect class="a" width="451.884" height="451.884"/><path class="b" d="M20.993,426.68a19.576,19.576,0,0,1-15.249-7.471A25.894,25.894,0,0,1,0,403.022V207.944c0-19.939,10.069-39.987,18.454-53.3a112.63,112.63,0,0,0,10.6-21.509,7.074,7.074,0,0,1,13.282,4.873,126.925,126.925,0,0,1-11.9,24.223,116.287,116.287,0,0,0-13.606,28.664,62.467,62.467,0,0,0-2.673,15.183H141.095c-.639-16.014-9.165-32.64-16.278-43.847a129.917,129.917,0,0,1-18.487-49.807L104.445,99.97H50.8l-1.885,12.452a7.113,7.113,0,0,1-7.006,5.993,7.27,7.27,0,0,1-1.038-.075,7.072,7.072,0,0,1-5.919-8.035l.78-5.114L44.2,49.408H42.336a7.065,7.065,0,0,1-7.048-7.072V22.853A22.878,22.878,0,0,1,58.109,0H97.124a22.887,22.887,0,0,1,22.862,22.853V42.336a7.072,7.072,0,0,1-7.089,7.072H111.07l6.333,41.78h.125v.764l2.781,18.354a117.346,117.346,0,0,0,4.981,20.363,112.834,112.834,0,0,0,11.455,23.974c8.451,13.315,18.487,33.37,18.487,53.285V403a25.892,25.892,0,0,1-5.711,16.2,19.566,19.566,0,0,1-15.25,7.471ZM14.112,403c0,5.18,3.155,9.563,6.881,9.546H134.247c3.727,0,6.873-4.374,6.873-9.546V378.168H118.706a7.064,7.064,0,0,1,0-14.112H141.12V220.18H14.112V364.064H93.8a7.064,7.064,0,0,1,0,14.112H14.112ZM52.953,85.892h49.359L96.775,49.408H58.49Zm-3.536-63.28V35.255h56.448V22.845a8.75,8.75,0,0,0-8.742-8.733H58.109A8.74,8.74,0,0,0,49.417,22.612Zm.041,306.671c-6.732-10.027-10.443-23.226-10.443-37.164s3.7-27.137,10.435-37.173c7.322-10.891,17.366-16.91,28.224-16.91s20.869,6,28.183,16.893C112.588,264.956,116.3,278.18,116.3,292.1s-3.711,27.145-10.443,37.165c-7.355,10.9-17.366,16.893-28.224,16.893S56.763,340.182,49.458,329.282Zm28.174-77.109c-13.282,0-24.505,18.279-24.505,39.946s11.223,39.928,24.505,39.928,24.505-18.263,24.505-39.946-11.224-39.945-24.505-39.945Z" transform="translate(150.37 12.533)"/></g></svg>