<svg xmlns="http://www.w3.org/2000/svg" width="269.331" height="44.765" viewBox="0 0 269.331 44.765"><defs><style>.a{fill:#ff8500;}</style></defs><g transform="translate(0 0.043)"><path class="a" d="M21.21,35.73H19.47a5.52,5.52,0,0,1-3.13-1.79,5.27,5.27,0,0,1-1.57-3.71,13.739,13.739,0,0,1,.1-2l.08-.54-.26-.22-1,.14-.86.69a6.66,6.66,0,0,0-.85,2,8.86,8.86,0,0,0-.28,2.12L11.9,34l.64,1.16,1.29.6-.15.25.7.86.58.43,1.13.4a11.47,11.47,0,0,0,1.67.29,6.23,6.23,0,0,0,2.06-.18l1.36-.64,1.22-1,.27-.56Z"/><path class="a" d="M58.73,9.46h-.71l-1.28.34c-.61.22-1.1.41-1.61.62s-1.08.55-1.67.85a8.84,8.84,0,0,0-1.69,1.18l-1.1.94a7.39,7.39,0,0,0-1.27,2L49,17.13a5.43,5.43,0,0,0,.54,2l.14.86-.51-.32-.65-.57v.93a5.07,5.07,0,0,0,1.67,2.16c.51.29,2.75,1,1,1a5.27,5.27,0,0,1-2.41-.9,1.92,1.92,0,0,0,.44,1.6l.4.25a2.73,2.73,0,0,0,1.79.37l.65-.2.55-1.11A31.882,31.882,0,0,1,53,19.89a7.81,7.81,0,0,1,.59-2.42c.48-.88.93-1.81,1.48-2.64L55.6,14l.73-1,1-1.44,1.13-1.42Z"/><path class="a" d="M49.66,25.19a5.18,5.18,0,0,1-2.38-1.73l-.7-1.23a4.75,4.75,0,0,1-.32-2.56l-1.33-1.21a8.12,8.12,0,0,0-2.86-1.58c-.27-.05-.49.26-.78.88l-.79,1.76a20,20,0,0,0-.53,2.8l-.46.79c-.51.46-2.1.36-2.21,1.13v.28a10.17,10.17,0,0,1-.18,2.68l-.18.41.42-.17.49-.16a14.17,14.17,0,0,1,4-.5l1.58.24,1,.27c.56.18,1.17.84,1.78.68h.32l.62.84.26-.4a6.53,6.53,0,0,1,.46,5l1-1.23a8.07,8.07,0,0,0,.73-1.93,8.29,8.29,0,0,0,.32-1.84V26.6Z"/><path class="a" d="M44.93,28.8l-.86-.69-1-.15-.26.23.08.54c.06.65.1,1.3.1,2a5.29,5.29,0,0,1-1.57,3.72,5.47,5.47,0,0,1-3.13,1.78H36.55L35.05,36l.27.56,1.22,1,1.36.63a6.25,6.25,0,0,0,2.06.18,11.751,11.751,0,0,0,1.67-.29l1.13-.41.58-.43.58-1.21,1.19-.42.72-1.25.21-1.56a8.85,8.85,0,0,0-.28-2.12,6.69,6.69,0,0,0-.85-2"/><path class="a" d="M6.46,5.3V6.77c.61.57,1.2-1.1,1.71-1.69s1.25-.69,2-1.26a7.42,7.42,0,0,1,3.8-1.61l-.77.64A13.72,13.72,0,0,0,11,4.79c-.62.62-.7,2-1,2.86C9.61,9,11,7.67,11.41,7a5.3,5.3,0,0,1,2.91-2.56c.81-.37,1.16-.3.74-.07L13.74,5.55c-.69.58-.65,1.86-.7,2.64-.11,2.07,2.05-1.71,3-1.68,0,.76-1.16,1.24-.43,2l1.17.6,1.28,1.2.62,1.28.13.71.44.11c.55-.25.94-1,1.64-.94l.82-.24A20.48,20.48,0,0,0,23.44,10a10.5,10.5,0,0,1,2.27-1.41l.84-.14,1.75.23.29.1L28.21,8l-.65-1.11-1-1.52A18.519,18.519,0,0,0,25.15,3.9a13.7,13.7,0,0,0-2.21-1.6A14.93,14.93,0,0,0,19.83.85,14.3,14.3,0,0,0,16,0a10.33,10.33,0,0,0-3.94.4,14.25,14.25,0,0,0-1.72.74l-1.22.73A12.28,12.28,0,0,0,5.64,5.42a19.93,19.93,0,0,0-1.3,2.14l.36.07c.7-.2,1.12-1.82,1.76-2.33"/><path class="a" d="M12.37,27.55l.53-.47,1.29-.56,1.17-.2,1.59-.44-.24-1.14a7.16,7.16,0,0,0-3.42-3c-.7-.25-1.2-.22-1.42-1l-.06-.27v-.29l-.08-.64.05-.65-.2.34-.14.44v1L11.2,22.2l-.7,1.23a5.07,5.07,0,0,1-1.57,1.34L8.38,25l-.48.22-.18,2.27a10.81,10.81,0,0,0,.42,2.29,7.28,7.28,0,0,0,.77,1.93l.51.79.45.5-.32-1.12-.32-1.06L9.07,29.7V28.28L9.24,27l.6-.63L9.78,27v.62l.31.92.5-.5.51-.86.26.57Z"/><path class="a" d="M9.85,19.75l.3-.78-.45,2.3a17.8,17.8,0,0,1-1,1.82L9.23,23,10,22l.55-1,.19-.77V19.14l-.13-1.36-.14-.53-.73-1a24.08,24.08,0,0,0-2.26-2.56L5.89,12.35A7.21,7.21,0,0,0,4.2,11.17c-.76-.33-1.19-.48-1.81-.74S1.57,10.06,1,9.84l-.7-.2L0,9.73l.14.55.48.62,1.2,1.34c1.36,1.17,2.72,2.18,3.39,3.9L5.5,17.8,5.78,19l.3.76,1.08.06.65-.3-.33.7-.41.55-.33.45.6.64,1.35-.5a5,5,0,0,0,1.16-1.57"/><path class="a" d="M34.51,18.51v.73l.48.58A16.59,16.59,0,0,1,35,22l-.27.51-.2.27-.15.25v.92h-.1l-.09-.23v-.36l.18-.81.22-.46V20.2l-.3-.41-.18-.57v-.93l.42-.78.39-.5.84-.27.58-.6,1.59-.55.4.08.09,1.91v2.47l-.23,1.51-1,.85-1.35.24.44-.73a11.52,11.52,0,0,0,.1-1.86l.28-.23-.06-2.17-.75.1-.67.48Zm-1.63,9.81-.13,1.6-.25.49-.16,2A5.61,5.61,0,0,1,32,34.29l-.37.58-.32.74-.11.75L30.82,36l-.48-.94L30,34.19a2.3,2.3,0,0,1-.27-1.3l.15-1.28c.11-.9.1-1.82.3-2.71l.48-1.77.3-.24.32-.23.3-.34.32-.45v-.92l-.06-.34-.09-.3.42.48.37.73.32.63.05.43a12.479,12.479,0,0,1-.06,1.75Zm3,2.12h0v-1L36,27.73l.47-.8.23-1V23.92c0-.69.79-.67,1.23-.8l.93-.43.48-.8c.08-.6,0-1.2.08-1.79a13.815,13.815,0,0,0,0-1.82c0-1,.46-2.82-.54-3.55l-1-.06-.82.29-1,.41-.52.44-1.84.56-.42.76-.41.83.11-.71.39-1.3,1-.55.87-.27.65-.58,1.43-.69L37,13l-.29-.06-.18.06h-.68l-.27-.11.76-.26.37-.12.42-.16.29-.1h.13l.51.18h.62l.27-.45.19-.57.58-1.14L41,9.07l1.16-.59c.73-.76-.38-1.23-.43-2,.94,0,3.12,3.75,3,1.67,0-.78,0-2.07-.7-2.64L42.69,4.38c-.42-.23-.08-.3.74.07A5.24,5.24,0,0,1,46.33,7c.39.62,1.8,1.92,1.41.62-.25-.83-.33-2.24-1-2.87a14.08,14.08,0,0,0-2.21-1.93l-.77-.65a7.44,7.44,0,0,1,3.8,1.62c.74.57,1.48.65,2,1.25s1.1,2.26,1.71,1.69V5.28c.63.5,1.06,2.13,1.76,2.33h.25l-.13-.28-.49-.87-.4-.81a9.79,9.79,0,0,0-1.94-2l-.89-.74L48.29,2.1A10.42,10.42,0,0,0,46,.79,8,8,0,0,0,44,.2,13.23,13.23,0,0,0,41.43.15h0L40.7.21a9.37,9.37,0,0,0-2.49.58c-1.3.71-1.71,1.82-2.54,2.94C35.2,4.36,34.2,5.2,34,6l.26,1.21a31.071,31.071,0,0,1,1.12,3.68l.16.42.15.51-.48-.19-1.52-.78-1.38-.91-1.45-.49-.7.18-.39.46-.05,1.48L29.46,13c0,.94,0,1.88.07,2.81a5.08,5.08,0,0,1-.11,1.87l-.49,1.79c-.18-.06,0-3.13-.07-4.42,0-.64,0-1.28-.06-1.91v-1.7l-.44-.88L27.08,9.44H27c-.58.58-1,1.3-1.56,1.93l-.7.93L25,13l.16.28-.72.1a17.8,17.8,0,0,1-1.81-.27l.11.27,1.39,1,.71.71a8.33,8.33,0,0,1,.06,2.38l.08.5-.42-.83-.41-.76-1.84-.56-.53-.44-1-.41-.82-.29-.62-.07.66.7.86.56.67.32.58.6.84.27.4.5.43.73-.16.59-.27.55v-.88l-.73-.25-.67-.48-.74-.1-.06,2.17.27.23a12.4,12.4,0,0,0,.09,1.86l.37.41.16.15L22.11,24h0l-.15.92v.45L23,26l.18.35.07.11.11.43.06,1,.18.53.25.5.06.17.74.47.36.28-.11-1.46a12.37,12.37,0,0,1-.06-1.75l.05-.43.32-.63.37-.73L26,24.3l-.1.3-.06.34v.92l.32.45.3.34.32.23.3.24.48,1.77c.2.89.18,1.82.3,2.72L28,32.89v.51c-.27.86-.53,1.56-.84,2.38-.1.27-.16.5-.34,1.14l-.16.74-.11.95.31.73.18-.16L27.41,38l.49-1.52.13-.09.07.13v3.19a3.57,3.57,0,0,1-.26,1.56l-.16,1,.52.68.2.12h.16l.1-.15-.05-.27-.07-.34v-.15c.22-4.44.17-8.23.17-14.81V25.16l-.08-.83-.09-.4.18-.39.15-.74.08-.1h0l.08.1.15.74.18.39-.09.4-.08.83c-.06.72,0,1.46,0,2.19,0,8.18,0,12,.17,14.85v.11l-.07.34v.07l.27.66.29-.5.37-.59-.16-1a3.54,3.54,0,0,1-.27-1.56V36.56l.08-.13.13.09L30.42,38l.35,1.14L31,40c-.14,1-.24,2-.43,2.93l-.93,1.57c.22.62.67-.24.85-.42l1-.7.48-.44v-.67a13.38,13.38,0,0,1-.39-1.93V39.11l.22.41v-.17l.22-.79.11-.3h-.29l-.25-.15-.22-.24L31,37.46,30.86,37l.72.28.37-.77a3.57,3.57,0,0,1,.63-1.42,2.58,2.58,0,0,0,.52-1.58V32.16L33.19,31l.55-.84.2-1.35.27-.48.18-.53.06-.92.08-.43.09-.11.08-.11.32-.13v.38l-.18.13-.08.55v1.01l-.41.9v1.39l-.12.74h0v.06l.68-.27.8-.4Z"/><path class="a" d="M128.71,29.75a1.27,1.27,0,0,1-.36.81,1.38,1.38,0,0,1-.89.46h-2.37V15h2.35a1.6,1.6,0,0,1,.91.43,1.92,1.92,0,0,1,.33.93Zm4.51-15.26a.35.35,0,0,0-.1-.25l-3.68-3.72a.37.37,0,0,0-.25-.11h-8.26a.35.35,0,0,0-.35.36v10.3l-1.65,1.66a.36.36,0,0,0-.1.25.37.37,0,0,0,.1.25l1.65,1.66v10.3a.35.35,0,0,0,.35.36h8.25a.35.35,0,0,0,.25-.11l3.69-3.72a.35.35,0,0,0,.1-.25Z"/><path class="a" d="M154.89,31h-7.75V25.27h3.8a.35.35,0,0,0,.33-.22.36.36,0,0,0-.08-.39L149.52,23l1.66-1.66a.358.358,0,0,0-.24-.62h-3.8V15h7.75a.35.35,0,0,0,.35-.36V10.78a.35.35,0,0,0-.35-.36H143a.35.35,0,0,0-.35.36V21.09L141,22.74a.36.36,0,0,0-.1.25.35.35,0,0,0,.1.25l1.65,1.65V35.21a.35.35,0,0,0,.35.36h11.92a.35.35,0,0,0,.35-.36V31.38a.35.35,0,0,0-.35-.36"/><path class="a" d="M269.22,22.75l-1.65-1.66V10.79a.35.35,0,0,0-.35-.36h-3.8a.35.35,0,0,0-.35.36V21.11l-4.15-10.4a.35.35,0,0,0-.34-.25h-3.69a.35.35,0,0,0-.35.36V21.09l-1.65,1.66a.36.36,0,0,0,0,.51l1.65,1.66V35.19a.35.35,0,0,0,.35.36h3.81a.36.36,0,0,0,.36-.36V24.94l4.27,10.36a.36.36,0,0,0,.34.25h3.56a.35.35,0,0,0,.35-.36V24.92l1.65-1.66a.36.36,0,0,0,0-.5"/><path class="a" d="M84.53,25.27a1,1,0,0,1,.7.29,1.21,1.21,0,0,1,.34.81h0v3.55a1.08,1.08,0,0,1-.28.78,1.4,1.4,0,0,1-.83.31h-2V25.27h2.09m.76-4.86a1.41,1.41,0,0,1-.83.31h-2V15h2.09a1,1,0,0,1,.7.29,1.21,1.21,0,0,1,.34.81h0v3.5a1.11,1.11,0,0,1-.28.8M88.38,23a.26.26,0,0,1,.09-.16L90,21.26a.37.37,0,0,0,.1-.25V13.78a.36.36,0,0,0-.1-.25l-3-3a.34.34,0,0,0-.25-.11H78.44a.36.36,0,0,0-.36.36V21.09l-1.65,1.65a.36.36,0,0,0-.1.25.35.35,0,0,0,.1.25l1.65,1.65V35.21a.36.36,0,0,0,.36.36h8.3a.35.35,0,0,0,.25-.11l3-3a.36.36,0,0,0,.1-.25V25a.37.37,0,0,0-.1-.25l-1.51-1.57a.28.28,0,0,1-.09-.18"/><path class="a" d="M106.14,29.78a1.45,1.45,0,0,1-.28.94,1.73,1.73,0,0,1-1,.31h-1.12a1.52,1.52,0,0,1-.93-.33h0a1.12,1.12,0,0,1-.31-.79v-14a1.06,1.06,0,0,1,.3-.64,1.21,1.21,0,0,1,.66-.3h1.73a1,1,0,0,1,.63.27,1.19,1.19,0,0,1,.29.69V29.77h0m6.21-7-1.68-1.68v-6.6a.35.35,0,0,0-.1-.25l-3.69-3.72a.36.36,0,0,0-.25-.1h-4.56a.35.35,0,0,0-.25.11l-3.68,3.72a.34.34,0,0,0-.1.25v6.57l-1.67,1.68a.36.36,0,0,0,0,.51L98,24.93V31.5a.35.35,0,0,0,.1.25l3.69,3.72a.36.36,0,0,0,.25.11h4.56a.36.36,0,0,0,.25-.11l3.7-3.72a.35.35,0,0,0,.1-.25V24.92l1.67-1.67a.36.36,0,0,0,0-.51"/><path class="a" d="M213,29.78a1.47,1.47,0,0,1-.28.94,1.72,1.72,0,0,1-1,.31H210.6a1.52,1.52,0,0,1-.93-.33h0a1.14,1.14,0,0,1-.31-.79v-14a1,1,0,0,1,.3-.64,1.2,1.2,0,0,1,.66-.3h1.73a1,1,0,0,1,.63.27,1.17,1.17,0,0,1,.29.69V29.78m6.21-7L217.5,21.1V14.49a.35.35,0,0,0-.1-.25l-3.69-3.72a.35.35,0,0,0-.25-.1h-4.57a.35.35,0,0,0-.25.11L205,14.24a.35.35,0,0,0-.1.25v6.57l-1.67,1.68a.37.37,0,0,0,0,.51l1.67,1.68V31.5a.35.35,0,0,0,.1.25l3.7,3.72a.35.35,0,0,0,.25.11h4.56a.35.35,0,0,0,.25-.11l3.7-3.72a.35.35,0,0,0,.1-.25V24.92l1.67-1.67a.37.37,0,0,0,0-.51"/><path class="a" d="M170.38,25.27a1,1,0,0,1,.7.29,1.22,1.22,0,0,1,.34.81h0v3.55a1.07,1.07,0,0,1-.28.78,1.39,1.39,0,0,1-.82.31h-2V25.27h2.09m.76-4.86a1.4,1.4,0,0,1-.82.31h-2V15h2.09a1,1,0,0,1,.7.29,1.21,1.21,0,0,1,.34.81h0v3.5a1.1,1.1,0,0,1-.28.8m3.04,2.6a.26.26,0,0,1,.09-.16l1.51-1.55a.37.37,0,0,0,.1-.25V13.78a.36.36,0,0,0-.1-.25l-3-3a.35.35,0,0,0-.25-.11H164.3a.36.36,0,0,0-.36.36V21.09l-1.65,1.65a.35.35,0,0,0-.1.25.34.34,0,0,0,.1.25l1.65,1.65V35.21a.36.36,0,0,0,.36.36h8.31a.35.35,0,0,0,.25-.11l3-3a.36.36,0,0,0,.1-.25V25a.37.37,0,0,0-.1-.25l-1.51-1.57a.28.28,0,0,1-.09-.18"/><path class="a" d="M193.64,35.22s.14.35.44.35h3.49c.14,0,.28-.29.22-.44l-2.72-7.51-.8-2.35a2.634,2.634,0,0,1-.11-.33l-.05-.15L197,21.73a.34.34,0,0,0,.1-.25v-7.7a.34.34,0,0,0-.1-.25l-3-3a.35.35,0,0,0-.25-.11h-8.31a.36.36,0,0,0-.36.36V21.09l-1.65,1.65a.36.36,0,0,0-.1.25.37.37,0,0,0,.1.25l1.65,1.65V35.21a.36.36,0,0,0,.38.36h4a.36.36,0,0,0,.36-.38V25.37h.64l3.19,9.84M192.3,20.76a1.42,1.42,0,0,1-.83.31h-2V15h2.09a1,1,0,0,1,.7.29,1.24,1.24,0,0,1,.34.81V20a1.1,1.1,0,0,1-.28.8"/><path class="a" d="M245.78,23,244,21.45l1.71-10.67a.37.37,0,0,0,0-.07.35.35,0,0,0-.35-.35h-3.81a.35.35,0,0,0-.34.29L239.8,21.52l-3-10.93a.35.35,0,0,0-.33-.24h-2.89a.34.34,0,0,0-.33.24l-3,11L228.7,10.64a.34.34,0,0,0-.34-.29h-3.81a.35.35,0,0,0-.34.41l1.86,10.71L224.29,23a.351.351,0,0,0-.02.51l2.62,2.64,1.6,9.16a.35.35,0,0,0,.34.29h3.81a.35.35,0,0,0,.34-.41l-1.07-4.65L235.05,20l3.1,10.6-.9,4.65a.35.35,0,0,0,.08.28.36.36,0,0,0,.27.12h3.81a.35.35,0,0,0,.34-.29l1.47-9.2,2.58-2.6a.35.35,0,0,0,0-.51"/></g></svg>