<svg xmlns="http://www.w3.org/2000/svg" width="132.743" height="42.82" viewBox="0 0 132.743 42.82"><defs><style>.a{fill:#11c76f;}</style></defs><path class="a" d="M29.8,36.577h6.209V18.486H29.8Zm8.35-30.4H33.973V10.35h4.175ZM14.7,8.209H8.709v5.245h5.567c3.533,0,5.567,1.713,5.567,4.924s-2.034,5.031-5.567,5.031H8.709V13.561H2.5V36.577H8.709V28.656H14.6c7.172,0,11.347-3.854,11.347-10.491C25.944,11.956,21.876,8.209,14.7,8.209ZM42.323,2H29.8V14.525H42.323ZM40.289,12.384h-8.35V4.034h8.35Zm36.4-4.175H71.012v5.245h5.353c3.533,0,5.567,1.713,5.567,4.924S79.9,23.41,76.365,23.41H71.012V13.561H64.8V36.577h6.209V28.656h5.674c7.172,0,11.347-3.854,11.347-10.491C88.033,11.956,83.858,8.209,76.686,8.209Zm52.134,6.637-5.353,13.488-5.353-13.488h-6.423l8.564,21.731-3.319,8.243h6.53l11.776-29.974Zm-27.833-.107A20.67,20.67,0,0,0,91.138,17.2l1.927,4.282a13.359,13.359,0,0,1,6.53-1.927c3,0,4.5,1.285,4.5,3.64v.428H98.1c-5.353,0-8.243,2.462-8.243,6.53,0,3.961,2.783,6.744,7.494,6.744a8.86,8.86,0,0,0,6.851-2.89v2.355h6.1V22.233C110.086,17.629,106.767,14.739,100.987,14.739Zm3.64,14.559a5.155,5.155,0,0,1-5.031,3.319c-2.141,0-3.426-1.071-3.426-2.783s1.178-2.462,3.533-2.462h4.924ZM51.85,31.867c-3,0-5.138-2.355-5.138-5.888,0-3.426,2.141-5.781,5.138-5.781a5.945,5.945,0,0,1,4.924,2.355l4.175-3c-1.927-2.89-5.245-4.6-9.42-4.6C45,14.846,40.5,19.342,40.5,25.979S45,37.006,51.529,37.006c4.5,0,7.815-1.82,9.635-4.817L56.882,29.3A5.543,5.543,0,0,1,51.85,31.867Z" transform="translate(-2.5 -2)"/></svg>