<svg xmlns="http://www.w3.org/2000/svg" width="72" height="72" viewBox="0 0 72 72"><defs><style>.a{fill:#14172c;}.b{fill:red;opacity:0;}</style></defs><g transform="translate(-3008 796)"><path class="a" d="M-3775.1-478.256a12.919,12.919,0,0,1-7.974-11.945,12.894,12.894,0,0,1,4.628-9.912v-28a8.3,8.3,0,0,1,6.647-8.134,8.294,8.294,0,0,1,9.289,4.9,8.244,8.244,0,0,1,.651,3.233v28a12.908,12.908,0,0,1,4.62,9.337,12.908,12.908,0,0,1-3.776,9.709,12.919,12.919,0,0,1-9.145,3.791A12.9,12.9,0,0,1-3775.1-478.256Zm-.619-49.857v29.371a10.2,10.2,0,0,0-3.878,12.37,10.2,10.2,0,0,0,11.4,6.176,10.2,10.2,0,0,0,8.245-10,10.184,10.184,0,0,0-4.627-8.542v-15.323h-4.9a1.364,1.364,0,0,1-1.364-1.364,1.364,1.364,0,0,1,1.364-1.363h4.9v-2.727h-4.9a1.364,1.364,0,0,1-1.364-1.364,1.364,1.364,0,0,1,1.364-1.364h4.9v-2.728h-4.9a1.364,1.364,0,0,1-1.324-1.363,1.364,1.364,0,0,1,1.324-1.363h4.894v-.41a5.567,5.567,0,0,0-5.566-5.567A5.567,5.567,0,0,0-3775.723-528.113Zm-2.172,40.21a8.073,8.073,0,0,1,3.333-9.063l.961-.629v-10.992a3.446,3.446,0,0,1,3.446-3.445,3.446,3.446,0,0,1,3.446,3.445v10.992l.961.629a8.074,8.074,0,0,1,3.333,9.063,8.073,8.073,0,0,1-7.74,5.775A8.073,8.073,0,0,1-3777.9-487.9Z" transform="translate(6814.078 -253.587)"/><rect class="b" width="72" height="72" transform="translate(3008 -796)"/></g></svg>