<svg xmlns="http://www.w3.org/2000/svg" width="72" height="72" viewBox="0 0 72 72"><defs><style>.a{fill:red;opacity:0;}.b{fill:#14172c;}</style></defs><g transform="translate(-3008 909)"><rect class="a" width="72" height="72" transform="translate(3008 -909)"/><path class="b" d="M-3779.728-254.26a3.124,3.124,0,0,1-2.433-1.192,4.134,4.134,0,0,1-.917-2.583v-31.136c0-3.182,1.607-6.383,2.945-8.508a17.913,17.913,0,0,0,1.692-3.433,1.129,1.129,0,0,1,1.449-.67,1.128,1.128,0,0,1,.671,1.448,20.249,20.249,0,0,1-1.9,3.867,18.543,18.543,0,0,0-2.171,4.574,10,10,0,0,0-.426,2.424h20.259a15.233,15.233,0,0,0-2.6-7,20.734,20.734,0,0,1-2.951-7.95l-.3-1.988h-8.561l-.3,1.988a1.136,1.136,0,0,1-1.118.956,1.187,1.187,0,0,1-.165-.011,1.129,1.129,0,0,1-.945-1.283l.125-.816,1.35-8.9h-.3a1.128,1.128,0,0,1-1.125-1.129v-3.109a3.653,3.653,0,0,1,3.643-3.648h6.227a3.655,3.655,0,0,1,3.649,3.648v3.109a1.128,1.128,0,0,1-.332.8,1.126,1.126,0,0,1-.8.329h-.292l1.01,6.669h.021v.122l.443,2.93a18.753,18.753,0,0,0,.795,3.25,18.029,18.029,0,0,0,1.829,3.826c1.349,2.125,2.951,5.326,2.951,8.5v31.136a4.132,4.132,0,0,1-.911,2.586,3.125,3.125,0,0,1-2.434,1.192Zm-1.1-3.779c0,.827.5,1.527,1.1,1.524h18.076c.6,0,1.1-.7,1.1-1.524V-262h-3.577a1.128,1.128,0,0,1-1.073-1.127,1.128,1.128,0,0,1,1.073-1.126h3.577v-22.963h-20.271v22.965h12.719a1.126,1.126,0,0,1,1.073,1.126,1.128,1.128,0,0,1-1.073,1.126h-12.719Zm6.2-50.613h7.877l-.883-5.824h-6.11Zm-.565-10.1v2.018h9.01v-1.981a1.4,1.4,0,0,0-1.395-1.394h-6.227A1.4,1.4,0,0,0-3775.191-318.751Zm.007,48.947a10.734,10.734,0,0,1-1.666-5.932,10.733,10.733,0,0,1,1.665-5.933,5.479,5.479,0,0,1,4.5-2.7,5.463,5.463,0,0,1,4.5,2.7,10.738,10.738,0,0,1,1.667,5.933,10.733,10.733,0,0,1-1.667,5.932,5.48,5.48,0,0,1-4.5,2.7A5.454,5.454,0,0,1-3775.185-269.8Zm4.5-12.307c-2.12,0-3.912,2.918-3.912,6.375s1.792,6.373,3.912,6.373,3.911-2.915,3.911-6.375-1.791-6.375-3.911-6.375Z" transform="translate(6815.078 -584.639)"/></g></svg>