<svg xmlns="http://www.w3.org/2000/svg" width="72" height="72" viewBox="0 0 72 72"><defs><style>.a{fill:#14172c;}.b{fill:red;opacity:0;}</style></defs><g transform="translate(-3292 998)"><path class="a" d="M-3774.648-380.877a7.168,7.168,0,0,1,.3-2.012,1.16,1.16,0,0,1,.189-.512c1.184-3.149,8.73-18.526,10.238-21.539a10.888,10.888,0,0,0,.666-7.364l-2.2-7.848-.3-1.261a1.148,1.148,0,0,1-.026-.157l-.116-1.218v-.228c.2-6.006,4.9-10.569,11.181-10.891,4.919-.245,12.884,3.3,17.435,6.725a10.32,10.32,0,0,1,3.8,8.615,10.6,10.6,0,0,1-4.6,8.685,65.094,65.094,0,0,1-7.615,3.906,11.1,11.1,0,0,0-5.111,5.541c-.267.721-6.924,18.605-8.9,22.555-2.291,4.577-5.267,4.577-7.235,4.577C-3770.451-373.306-3774.579-376.612-3774.648-380.877Zm20.044-50.713c-5.049.257-8.827,3.88-8.981,8.614v.017l.1,1.087.271,1.14,2.19,7.835a13.237,13.237,0,0,1-.822,8.98c-2.257,4.516-9.453,19.293-10.2,21.485a1.087,1.087,0,0,1-.074.165,4.811,4.811,0,0,0-.214,1.373,5.775,5.775,0,0,0,5.388,5.272c1.726,0,3.512,0,5.163-3.3,1.919-3.839,8.745-22.18,8.814-22.365a13.447,13.447,0,0,1,6.228-6.765l.065-.031a62.541,62.541,0,0,0,7.34-3.754,8.3,8.3,0,0,0,3.534-6.8,8.122,8.122,0,0,0-2.875-6.7c-4.111-3.093-11.194-6.266-15.509-6.267C-3754.327-431.6-3754.467-431.6-3754.6-431.591Zm9.34,17.664a5.383,5.383,0,0,1-3.552-1.32l-.048-.045c-1.559-1.51-3.287-2.012-5.738-2.344a5.12,5.12,0,0,1-4.812-5v-.1a5.241,5.241,0,0,1,4.924-4.91,4.2,4.2,0,0,1,3,.8,1.193,1.193,0,0,1,.118.1c1.152,1.106,4.557,2.475,7.005,2.816,2.934.419,4.438,2.234,4.239,5.109a.3.3,0,0,1-.007.076c-.37,2.743-2.478,4.833-4.788,4.833C-3745.037-413.912-3745.148-413.917-3745.264-413.927Zm.211-2.309c1.176.108,2.391-1.192,2.622-2.788.1-1.614-.555-2.367-2.25-2.616-2.62-.366-6.511-1.8-8.218-3.376a1.867,1.867,0,0,0-1.29-.334c-.038,0-.075.009-.113.012a2.924,2.924,0,0,0-2.79,2.686,2.813,2.813,0,0,0,2.669,2.708.3.3,0,0,1,.092.009c2.867.391,5.049,1.023,7.06,2.96v0C-3746.916-416.665-3746.56-416.373-3745.053-416.236Z" transform="translate(7081.648 -558.078)"/><rect class="b" width="72" height="72" transform="translate(3292 -998)"/></g></svg>