<svg xmlns="http://www.w3.org/2000/svg" width="72" height="72" viewBox="0 0 72 72"><defs><style>.a{fill:#14172c;}.b{fill:red;opacity:0;}</style></defs><g transform="translate(-3151 850)"><path class="a" d="M-3749.338-566.951v-5.613h-5.9l-1.01,1.311a3.709,3.709,0,0,1-3.11,1.7h-.026a4.058,4.058,0,0,1-1.768-.445.877.877,0,0,1-.1-.054,3.767,3.767,0,0,1-1.158-1.13l-1.094-1.382h-5.82v5.613a1.325,1.325,0,0,1-1.325,1.325,1.325,1.325,0,0,1-1.324-1.325v-16.306l-5.386-6.8a1.329,1.329,0,0,1-.286-.823v-36.78a1.327,1.327,0,0,1,.486-1.032l.656-.53c3.2-2.69,9.386-4.24,16.962-4.24,7.377,0,13.719,1.59,16.959,4.24l.655.539a1.324,1.324,0,0,1,.485,1.024v36.715a1.332,1.332,0,0,1-.274.809l-4.988,6.492a.876.876,0,0,1,.007.132v16.562a1.325,1.325,0,0,1-1.324,1.325A1.325,1.325,0,0,1-3749.338-566.951Zm-10.556-5.381a1.462,1.462,0,0,0,.548.132,1.079,1.079,0,0,0,.788-.368h-1.58A1.154,1.154,0,0,0-3759.894-572.332Zm6.7-2.879h3.858v-5.012Zm-21.61-51.973-.184.151v35.693l12.771,16.129h5.681l12.455-16.179,0-35.643-.172-.139c-2.744-2.247-8.6-3.64-15.287-3.64C-3766.391-630.812-3772.1-629.457-3774.8-627.184Zm5.486,51.973h3.724l-3.724-4.7Zm-3.83-16.974a1.325,1.325,0,0,1-.842-1.675,1.326,1.326,0,0,1,1.675-.842,41.279,41.279,0,0,0,25.8,0v-.006a1.326,1.326,0,0,1,1.675.843,1.326,1.326,0,0,1-.842,1.675,43.721,43.721,0,0,1-13.733,2.207h-.036A43.685,43.685,0,0,1-3773.147-592.185Zm9.244-9.083a4.43,4.43,0,0,1,4.429-4.429,4.429,4.429,0,0,1,4.429,4.429,4.429,4.429,0,0,1-4.429,4.429A4.43,4.43,0,0,1-3763.9-601.269Zm-9.244-22.562a1.326,1.326,0,0,1-.842-1.675,1.325,1.325,0,0,1,1.675-.842,41.266,41.266,0,0,0,25.8,0v-.006a1.326,1.326,0,0,1,1.675.842,1.325,1.325,0,0,1-.842,1.675,43.694,43.694,0,0,1-13.733,2.2h-.053A43.708,43.708,0,0,1-3773.147-623.831Z" transform="translate(6946.637 -213.538)"/><rect class="b" width="72" height="72" transform="translate(3151 -850)"/></g></svg>