<svg xmlns="http://www.w3.org/2000/svg" width="72" height="72" viewBox="0 0 72 72"><defs><style>.a{fill:#14172c;}.b{fill:red;opacity:0;}</style></defs><g transform="translate(-3043 960)"><path class="a" d="M40.615,32.614a1.017,1.017,0,0,0-.943-.287l-1.1.231.219-1.177a18.664,18.664,0,0,0-1.429-11.916l-.817-1.532a1.024,1.024,0,0,0-1.322-.45l-1.584.716q-.533.24-1.048.513a24.482,24.482,0,0,0-1.949-8.293l-.919-1.94a1.021,1.021,0,0,0-1.484-.417L26.446,9.238c-.119.08-.237.161-.355.244A17.389,17.389,0,0,0,21.656,1.6L20.381.329a1.022,1.022,0,0,0-1.445,0L17.673,1.59a17.659,17.659,0,0,0-4.354,7.9c-.149-.1-.3-.209-.454-.309L11.078,8.009a1.022,1.022,0,0,0-1.484.416l-.907,1.921-.07.142a21.876,21.876,0,0,0-1.857,7.618L5.67,17.631a1.022,1.022,0,0,0-1.329.491L3.578,19.7A18.291,18.291,0,0,0,2.313,31.415l.243,1.339-1.33-.275a1.022,1.022,0,0,0-1.2,1.24l.723,2.992a20.272,20.272,0,0,0,19.512,14.9h.119l2.015-.051a1.022,1.022,0,0,0,.5-.15,20.194,20.194,0,0,0,17.261-14.88l.714-2.962a1.02,1.02,0,0,0-.257-.952ZM18.868,17.022l1.36-1.36a.806.806,0,0,0,.061-.069,2.015,2.015,0,0,1,.167-.172l.583.5.024.026c.078.081.153.163.229.247l.717.941a18.262,18.262,0,0,1,2.755,5.271l.748,2.28c.016.066.033.133.049.2l.028.114a20.653,20.653,0,0,0-2.534,5.014,13.364,13.364,0,0,0-1.287-.763L20.9,28.8a1.029,1.029,0,0,0-.956,0l-.9.478c-.368.212-.761.458-1.171.74a24.9,24.9,0,0,0-2.53-4.9l.847-2.681a17.459,17.459,0,0,1,2.124-4.486.9.9,0,0,0,.048-.082l.322-.6C18.746,17.181,18.806,17.1,18.868,17.022Zm15.616,3.037.712-.321.357.669a16.617,16.617,0,0,1,1.235,10.588l-.376,2.025a21.358,21.358,0,0,0-7.533,3.367A19.776,19.776,0,0,0,24.844,31.4l.566-1.267a17.818,17.818,0,0,1,1.813-3.47L27.632,26a1.026,1.026,0,0,0,.149-.466c.043-.058.087-.12.13-.183a.88.88,0,0,0,.079-.094c.18-.242.369-.478.562-.705l.881-.969a16.6,16.6,0,0,1,1.8-1.589c.062-.044.125-.089.189-.132l.817-.562a.961.961,0,0,0,.079-.061,16.962,16.962,0,0,1,2.163-1.176Zm-6.1-9.647.415.875a23.061,23.061,0,0,1,1.794,8.251l.02.381c-.2.135-.387.275-.576.418A15.944,15.944,0,0,0,28,22.118l-.025.027q-.409.417-.793.858A21.429,21.429,0,0,0,23.387,15.5l.717-.966a14.721,14.721,0,0,1,1.38-1.576l.766-.767a1.007,1.007,0,0,0,.267-.471c.341-.275.691-.535,1.053-.776Zm-13.252.294c.005-.019.01-.039.014-.059a15.878,15.878,0,0,1,3.959-7.6l.555-.554.581.579c3.012,2.8,4,7.388,4.045,7.62l.054.218a16.612,16.612,0,0,0-2.466,2.9l-.015.017-.7-.725a1.023,1.023,0,0,0-1.471,0L18.3,14.54c-.072.075-.14.15-.21.226a15.648,15.648,0,0,0-3.022-3.848Zm-4.671.657.478-1,.806.53a13.4,13.4,0,0,1,1.185.867,1.007,1.007,0,0,0,.214.355l.739.792a13.937,13.937,0,0,1,1.857,2.284V15.2l.918,1.4A21.913,21.913,0,0,0,13.749,23a17.786,17.786,0,0,0-4.988-3.954l.022-.49a19.793,19.793,0,0,1,1.676-7.193ZM5.41,20.595l.338-.7.743.325q.475.2.932.432l.714.413a17.986,17.986,0,0,1,3.241,2.513l1.209,1.209q.257.316.5.645l.092.115a1.024,1.024,0,0,0,.141.394l.434.705a18.023,18.023,0,0,1,1.855,3.464l.551,1.254a19.847,19.847,0,0,0-4.1,5.133,21.862,21.862,0,0,0-7.345-3.282l-.4-2.193A16.622,16.622,0,0,1,5.41,20.595ZM38.179,36.028A18.138,18.138,0,0,1,22.273,49.417a1.017,1.017,0,0,0-.381.111l-1.367.038h-.267A18.219,18.219,0,0,1,2.728,36.2l-.34-1.4,1.374.282c.1.022.2.046.3.071a24.7,24.7,0,0,1,6.2,2.7l1.66,1.16a1.019,1.019,0,0,0,.584.183,1.045,1.045,0,0,0,.216-.022,1.025,1.025,0,0,0,.663-.478l.964-1.626a16.321,16.321,0,0,1,2.943-3.617l.868-.817a1.007,1.007,0,0,0,.153-.187L19.894,31.4a3.873,3.873,0,0,1,.588-.34,3.581,3.581,0,0,1,.625.34c.023.017.047.032.072.047l1.663.988a.376.376,0,0,0,.026.03l.885.884a19.055,19.055,0,0,1,2.957,3.586l.006.01.869,1.347c.016.031.032.06.047.092a1.051,1.051,0,0,0,1.517.448l1.548-1a26.855,26.855,0,0,1,6.842-2.9,1.017,1.017,0,0,0,.279-.122l.691-.146Z" transform="translate(3059.005 -950.03)"/><rect class="b" width="72" height="72" transform="translate(3043 -960)"/></g></svg>