<svg xmlns="http://www.w3.org/2000/svg" width="72" height="72" viewBox="0 0 72 72"><defs><style>.a{fill:#14172c;}.b{fill:red;opacity:0;}</style></defs><g transform="translate(-3173 933)"><path class="a" d="M-3769.473-784.234c0-3.3,6.446-6.357,15.674-7.443a.876.876,0,0,1,.972.767.875.875,0,0,1-.767.972c-9.217,1.086-14.126,4.009-14.126,5.7,0,2.378,9.337,5.7,24.542,5.7s24.542-3.319,24.542-5.7c0-1.7-4.909-4.618-14.126-5.7a.875.875,0,0,1-.767-.972.876.876,0,0,1,.972-.767c9.227,1.086,15.674,4.146,15.674,7.443,0,3.7-9.032,7.45-26.294,7.45S-3769.473-780.533-3769.473-784.234Zm12.673-16.594c-5.022-6.7-4.294-17.748,1.583-23.622a16.805,16.805,0,0,1,23.769,0c5.875,5.875,6.6,16.926,1.561,23.65l-13.447,19.421Zm7.486-11.892a6.136,6.136,0,0,0,6.136,6.136,6.136,6.136,0,0,0,6.136-6.136,6.136,6.136,0,0,0-6.136-6.136A6.143,6.143,0,0,0-3749.315-812.721Z" transform="translate(6951.473 -93.626)"/><rect class="b" width="72" height="72" transform="translate(3173 -933)"/></g></svg>